<svg xmlns="http://www.w3.org/2000/svg" xmlns:xlink="http://www.w3.org/1999/xlink" width="500" zoomAndPan="magnify" viewBox="0 0 375 374.999991" height="500" preserveAspectRatio="xMidYMid meet" version="1.0"><defs><g/><clipPath id="c64187b272"><path d="M 72 123 L 295 123 L 295 310.191406 L 72 310.191406 Z M 72 123 " clip-rule="nonzero"/></clipPath><clipPath id="a073ea1251"><path d="M 44 11.691406 L 206 11.691406 L 206 208 L 44 208 Z M 44 11.691406 " clip-rule="nonzero"/></clipPath></defs><g clip-path="url(#c64187b272)"><path fill="#51ade5" d="M 150.253906 251.351562 C 160.945312 249.949219 171.121094 240.40625 171.308594 240.230469 C 171.289062 240.300781 171.648438 240.980469 181.261719 247.554688 C 192.808594 255.449219 203.292969 243.660156 203.292969 243.660156 C 219.015625 253.441406 229.808594 248.816406 229.808594 248.816406 C 220.246094 255.019531 206.644531 250.917969 206.644531 250.917969 C 185.8125 262.648438 171.726562 248.609375 171.726562 248.609375 C 162.976562 252.78125 150.253906 251.351562 150.253906 251.351562 Z M 72.382812 242.121094 C 79.035156 256.644531 88.585938 269.566406 100.289062 280.144531 C 133.890625 274.757812 146.875 259.476562 146.875 259.476562 C 146.875 259.476562 156.609375 276.398438 179.625 276.238281 C 202.636719 276.074219 207.714844 259.476562 207.714844 259.476562 C 207.714844 259.476562 215.914062 270.203125 237.160156 275.410156 C 250.808594 278.757812 266.8125 270.277344 271.484375 263.820312 L 271.492188 263.808594 C 263.324219 261.804688 257.589844 259.671875 257.589844 259.671875 C 241.210938 269.515625 223.980469 262.359375 223.980469 262.359375 C 241.261719 265.460938 255.625 243.910156 255.625 243.910156 C 255.625 243.910156 261.863281 251.855469 275.710938 257.839844 C 287.878906 239.433594 294.964844 217.371094 294.964844 193.652344 C 294.964844 167.464844 286.328125 143.296875 271.75 123.832031 C 269.753906 125.246094 267.441406 127.132812 264.519531 130.285156 C 240.660156 156.023438 206.5625 181.398438 179.953125 198.03125 C 143.550781 220.78125 105.367188 235.535156 72.382812 242.121094 Z M 102.785156 282.335938 C 123.144531 299.714844 149.550781 310.207031 178.410156 310.207031 C 203.679688 310.207031 227.066406 302.164062 246.160156 288.5 C 225.800781 288.992188 211.574219 277.410156 211.574219 277.410156 C 179.679688 300.285156 146.875 276.398438 146.875 276.398438 C 124.179688 282.730469 110.296875 283.082031 102.785156 282.335938 " fill-opacity="1" fill-rule="nonzero"/></g><path fill="#3871c1" d="M 179.953125 198.03125 C 206.5625 181.398438 240.660156 156.023438 264.519531 130.285156 C 267.441406 127.132812 269.753906 125.246094 271.75 123.832031 C 272.304688 124.578125 272.847656 125.332031 273.386719 126.085938 C 259.207031 147.921875 231.757812 185.269531 192.902344 215.972656 C 158.4375 243.199219 122.945312 262.726562 92.765625 272.703125 C 84.457031 263.703125 77.546875 253.394531 72.382812 242.121094 C 105.367188 235.535156 143.550781 220.78125 179.953125 198.03125 " fill-opacity="1" fill-rule="nonzero"/><path fill="#f68712" d="M 260.21875 110.632812 C 247.800781 124.191406 224.675781 146.683594 192.1875 166.859375 C 164.5 184.046875 135.605469 196.976562 110.429688 203.867188 C 105.117188 205.316406 99.972656 206.5 95.042969 207.398438 C 87.601562 208.757812 80.644531 209.464844 74.324219 209.464844 C 70.035156 209.464844 66.175781 209.136719 62.792969 208.5 C 62.179688 203.640625 61.859375 198.683594 61.859375 193.652344 C 61.859375 151.300781 84.445312 114.226562 118.234375 93.820312 C 128.632812 87.535156 140.097656 82.828125 152.285156 80.039062 C 152.351562 80.023438 152.414062 80.007812 152.476562 79.996094 C 155.648438 79.273438 158.867188 78.683594 162.128906 78.230469 C 162.582031 78.164062 163.035156 78.105469 163.492188 78.046875 C 166.714844 77.632812 169.980469 77.355469 173.285156 77.210938 C 173.496094 77.203125 173.707031 77.191406 173.917969 77.183594 C 175.410156 77.128906 176.90625 77.097656 178.410156 77.097656 C 184.335938 77.097656 190.15625 77.539062 195.839844 78.394531 C 220.753906 82.128906 243.085938 93.75 260.21875 110.632812 " fill-opacity="1" fill-rule="nonzero"/><path fill="#5271ff" d="M 322.660156 62.183594 C 331.710938 48.3125 336.597656 35.996094 333.683594 34.007812 C 330.765625 32.019531 321.082031 41.066406 311.46875 54.550781 L 274.539062 54.832031 L 268.625 63.5 L 297.578125 76.175781 C 293.851562 82.320312 289.988281 88.90625 286.613281 94.96875 L 267.734375 93.980469 L 264.902344 98.128906 L 281.054688 105.371094 C 280.765625 105.941406 251.652344 144.664062 198.785156 177.488281 C 127.273438 221.886719 55.285156 235.320312 37.96875 207.441406 C 25.964844 188.125 43.371094 154.046875 78.980469 120.164062 C 22.011719 164.300781 -9.410156 213.816406 6.574219 239.546875 C 25.628906 270.21875 104.980469 255.675781 183.515625 206.589844 C 247.019531 166.894531 286.261719 109.234375 286.433594 109.042969 L 293.238281 118.476562 L 296.070312 114.328125 L 294.089844 100.074219 C 298.503906 94.714844 303.230469 88.71875 307.59375 83.007812 L 314.042969 102.703125 L 319.957031 94.03125 L 322.660156 62.183594 " fill-opacity="1" fill-rule="nonzero"/><g clip-path="url(#a073ea1251)"><path fill="#5271ff" d="M 176.992188 79.695312 C 180.714844 82.898438 185.234375 85.007812 190.054688 85.9375 C 195.167969 86.921875 199.9375 88.46875 205.1875 90.964844 C 205.1875 90.964844 202.003906 84.945312 195.839844 78.394531 C 186.640625 68.617188 170.796875 57.660156 149 63.824219 C 149.316406 63.621094 149.636719 63.417969 149.964844 63.214844 C 148.394531 62.589844 146.566406 62.078125 144.507812 61.851562 C 144.507812 61.851562 145.59375 61.523438 147.378906 61.503906 C 150.757812 61.464844 154.078125 60.640625 157.035156 59.007812 L 157.132812 58.953125 C 155.355469 58.136719 154.378906 56.777344 151.863281 56.496094 C 151.863281 56.496094 153.3125 56.0625 155.617188 56.167969 C 159.4375 56.34375 163.253906 55.632812 166.703125 53.972656 C 166.894531 53.882812 167.089844 53.789062 167.285156 53.695312 C 165.351562 52.699219 162.882812 51.796875 159.929688 51.46875 C 159.929688 51.46875 161.964844 50.792969 164.8125 50.804688 C 170.46875 50.832031 176.070312 49.667969 181.320312 47.558594 C 181.539062 47.46875 181.746094 47.386719 181.941406 47.308594 C 177.335938 45.933594 171.152344 44.542969 168.167969 44.210938 C 168.167969 44.210938 182.871094 42.679688 193.730469 43.757812 C 193.730469 43.757812 157.082031 18.476562 136.394531 64.582031 C 139.832031 53.070312 140.835938 33.027344 122.550781 20.5625 C 113.96875 14.714844 102.195312 11.75 102.195312 11.75 C 105.449219 14.953125 121.472656 33.882812 122.894531 36.777344 C 122.773438 36.6875 118.832031 33.773438 114.207031 31.828125 C 114.277344 32.050781 114.351562 32.269531 114.417969 32.488281 C 115.671875 36.496094 123.246094 45.738281 124.113281 47.503906 C 124.113281 47.503906 120.925781 45.125 116.898438 43.210938 C 117.839844 49.027344 120.542969 55.257812 120.78125 60.511719 C 102.335938 24.625 62.042969 35.773438 62.042969 35.773438 C 75.292969 37.1875 92.492188 42.675781 92.492188 42.675781 C 88.84375 42.328125 81.105469 42.453125 75.253906 42.953125 C 75.449219 43.082031 75.660156 43.21875 75.878906 43.367188 C 81.664062 47.214844 88.105469 50.007812 94.910156 51.40625 C 98.292969 52.105469 100.539062 53.40625 100.539062 53.40625 C 96.925781 53.0625 93.746094 53.53125 91.191406 54.238281 L 91.496094 54.46875 C 95.363281 57.410156 99.90625 59.3125 104.695312 60.128906 C 107.375 60.585938 108.929688 61.429688 108.929688 61.429688 C 105.855469 61.136719 104.351562 62.519531 102.019531 63.050781 C 102.125 63.140625 102.222656 63.226562 102.324219 63.3125 C 103.160156 64.035156 104.046875 64.691406 104.972656 65.28125 C 56.773438 49.695312 44.222656 84.589844 44.222656 84.589844 C 55.058594 77.054688 71.4375 70.011719 71.757812 69.875 C 68.769531 72.003906 63.003906 77.160156 58.914062 81.367188 C 58.949219 81.363281 58.988281 81.355469 59.027344 81.351562 C 66.300781 80.386719 73.304688 78.046875 79.796875 74.621094 C 82.585938 73.148438 84.867188 72.714844 84.867188 72.714844 C 81.914062 74.820312 79.8125 77.253906 78.34375 79.464844 C 78.410156 79.460938 78.472656 79.457031 78.535156 79.449219 C 83.46875 79.140625 88.226562 77.59375 92.457031 75.046875 C 94.683594 73.703125 96.355469 73.308594 96.460938 73.285156 C 93.949219 75.082031 93.714844 77.109375 92.300781 79.035156 L 92.398438 79.035156 C 96.480469 79.015625 100.511719 78.015625 104.082031 76.035156 C 106.011719 74.964844 107.40625 74.640625 107.488281 74.621094 C 105.429688 76.089844 103.789062 77.71875 102.484375 79.316406 C 104.40625 79.417969 106.242188 79.542969 107.984375 79.683594 C 81.402344 86.222656 81.558594 117.046875 81.558594 117.046875 C 83.125 113.746094 85.152344 110.894531 87.480469 108.40625 C 88.625 102.359375 91.054688 97.628906 91.054688 97.628906 C 90.523438 100.664062 91.671875 107.648438 91.691406 107.632812 C 95.515625 104.277344 97.148438 98.1875 99.125 93.5 C 99.632812 92.289062 99.996094 91.589844 99.996094 91.589844 C 99.472656 94.546875 99.226562 97.191406 99.164062 99.527344 C 99.195312 99.507812 99.226562 99.492188 99.253906 99.476562 C 104.289062 96.667969 108.3125 92.335938 110.621094 87.054688 C 111.007812 86.167969 110.453125 91.765625 110.429688 94.257812 C 117.253906 87.96875 121.464844 89.742188 121.464844 89.742188 C 120.449219 90.945312 119.363281 92.300781 118.234375 93.820312 C 105.90625 110.34375 87.957031 145.859375 95.042969 207.398438 C 99.972656 206.5 105.117188 205.316406 110.429688 203.867188 C 104.652344 179.773438 97.765625 130.210938 125.917969 93.40625 C 125.925781 93.679688 126.953125 91.753906 127.855469 90.773438 C 128.023438 90.914062 126.039062 99.253906 125.914062 102.730469 L 125.910156 102.8125 C 127.570312 101.671875 129.285156 101.53125 130.863281 99.457031 C 130.84375 99.542969 130.464844 100.941406 129.28125 102.785156 C 127.019531 106.289062 125.601562 110.261719 125.210938 114.410156 C 125.203125 114.460938 125.199219 114.507812 125.195312 114.558594 C 127.09375 113.378906 129.195312 111.675781 131.046875 109.242188 C 131.019531 109.355469 130.582031 111.222656 129.308594 113.46875 C 126.253906 118.847656 124.109375 124.6875 123.105469 130.789062 C 123.101562 130.820312 123.097656 130.851562 123.09375 130.882812 C 126.742188 127.542969 131.234375 122.820312 133.105469 120.355469 C 132.976562 120.636719 126.621094 134.246094 120 143.175781 C 120 143.175781 149.632812 130.097656 139.882812 92.71875 C 141.292969 98.335938 144.578125 103.289062 149.203125 106.773438 C 149.238281 106.800781 149.277344 106.828125 149.3125 106.855469 C 149.828125 104.792969 150.027344 99.378906 150.121094 96.8125 C 150.121094 96.8125 156.085938 104.015625 158.496094 114.289062 L 158.570312 114.355469 C 159.046875 112.367188 159.675781 107.046875 159.765625 104.609375 C 159.765625 104.609375 164.171875 113.574219 171.414062 132.976562 C 171.414062 132.976562 180.324219 99.585938 154.675781 81.457031 C 158.078125 83.222656 161.875 84.128906 165.738281 84.101562 L 165.847656 84.101562 C 165.273438 82.769531 162.152344 79.222656 161.679688 78.558594 C 161.679688 78.558594 172.996094 84.109375 177.621094 84.433594 L 177.753906 84.441406 C 177.054688 82.863281 173.808594 77.851562 173.597656 77.542969 C 173.597656 77.542969 175.835938 78.699219 176.992188 79.695312 " fill-opacity="1" fill-rule="nonzero"/></g><g fill="#5271ff" fill-opacity="1"><g transform="translate(165.943648, 346.129972)"><g><path d="M 0.796875 -14.828125 L 0.90625 -19.4375 L 1.328125 -19.4375 L 16.640625 -19.0625 L 17.078125 -19.046875 L 16.96875 -14.4375 L 16.84375 -14.4375 L 16.53125 -14.453125 L 15.421875 -14.46875 C 15.078125 -14.476562 14.867188 -14.65625 14.796875 -15 C 14.734375 -15.40625 14.695312 -15.78125 14.6875 -16.125 L 10.734375 -16.21875 L 10.390625 -2.421875 C 10.492188 -2.398438 10.632812 -2.367188 10.8125 -2.328125 C 10.988281 -2.296875 11.109375 -2.269531 11.171875 -2.25 C 11.234375 -2.238281 11.3125 -2.21875 11.40625 -2.1875 C 11.5 -2.164062 11.554688 -2.15625 11.578125 -2.15625 C 11.609375 -2.15625 11.640625 -2.148438 11.671875 -2.140625 C 11.710938 -2.140625 11.734375 -2.140625 11.734375 -2.140625 C 12.203125 -2.023438 12.425781 -1.742188 12.40625 -1.296875 L 12.375 0.296875 L 10.328125 0.25 L 6.703125 0.15625 L 4.671875 0.109375 L 4.703125 -1.484375 C 4.722656 -1.929688 4.960938 -2.203125 5.421875 -2.296875 L 5.46875 -2.3125 C 5.507812 -2.300781 5.546875 -2.296875 5.578125 -2.296875 C 5.609375 -2.296875 5.664062 -2.304688 5.75 -2.328125 C 5.84375 -2.359375 5.921875 -2.378906 5.984375 -2.390625 C 6.046875 -2.398438 6.164062 -2.414062 6.34375 -2.4375 C 6.519531 -2.46875 6.660156 -2.492188 6.765625 -2.515625 L 7.109375 -16.328125 L 3.15625 -16.421875 C 3.101562 -15.929688 3.046875 -15.554688 2.984375 -15.296875 C 2.898438 -14.953125 2.691406 -14.785156 2.359375 -14.796875 L 1.21875 -14.828125 Z M 0.796875 -14.828125 "/></g></g></g><g fill="#5271ff" fill-opacity="1"><g transform="translate(185.729666, 346.477147)"><g><path d="M 0.53125 -0.0625 L 0.359375 -1.640625 C 0.304688 -2.085938 0.5 -2.390625 0.9375 -2.546875 L 1 -2.5625 C 1.019531 -2.5625 1.046875 -2.566406 1.078125 -2.578125 C 1.179688 -2.628906 1.316406 -2.675781 1.484375 -2.71875 C 1.535156 -2.726562 1.601562 -2.742188 1.6875 -2.765625 C 1.769531 -2.796875 1.867188 -2.828125 1.984375 -2.859375 C 2.097656 -2.890625 2.195312 -2.914062 2.28125 -2.9375 L 0.71875 -16.96875 C 0.632812 -16.976562 0.53125 -16.984375 0.40625 -16.984375 C 0.28125 -16.992188 0.175781 -17 0.09375 -17 C 0.0078125 -17 -0.0546875 -17.003906 -0.109375 -17.015625 C -0.171875 -17.015625 -0.25 -17.019531 -0.34375 -17.03125 C -0.445312 -17.039062 -0.515625 -17.046875 -0.546875 -17.046875 C -0.578125 -17.035156 -0.601562 -17.035156 -0.625 -17.046875 L -0.6875 -17.0625 C -1.144531 -17.113281 -1.398438 -17.367188 -1.453125 -17.828125 L -1.625 -19.390625 L 0.421875 -19.609375 L 6.109375 -20.25 C 7.398438 -20.394531 8.546875 -20.382812 9.546875 -20.21875 C 10.484375 -20.082031 11.289062 -19.789062 11.96875 -19.34375 C 12.65625 -18.882812 13.171875 -18.347656 13.515625 -17.734375 C 13.867188 -17.097656 14.09375 -16.363281 14.1875 -15.53125 C 14.25 -14.90625 14.222656 -14.273438 14.109375 -13.640625 C 14.003906 -13.148438 13.78125 -12.597656 13.4375 -11.984375 C 13.144531 -11.472656 12.75 -11.007812 12.25 -10.59375 C 11.75 -10.175781 11.171875 -9.828125 10.515625 -9.546875 C 11.003906 -9.335938 11.441406 -9.003906 11.828125 -8.546875 L 15.375 -4.40625 C 15.875 -4.375 16.15625 -4.359375 16.21875 -4.359375 C 16.289062 -4.359375 16.375 -4.347656 16.46875 -4.328125 C 16.570312 -4.316406 16.640625 -4.3125 16.671875 -4.3125 C 16.722656 -4.3125 16.773438 -4.316406 16.828125 -4.328125 L 16.90625 -4.328125 C 17.363281 -4.265625 17.617188 -4.007812 17.671875 -3.5625 L 17.84375 -1.984375 L 17.453125 -1.953125 L 15.796875 -1.765625 L 14.21875 -1.59375 C 13.882812 -1.550781 13.613281 -1.582031 13.40625 -1.6875 C 13.1875 -1.789062 12.988281 -1.945312 12.8125 -2.15625 L 8.046875 -7.90625 C 7.890625 -8.101562 7.703125 -8.242188 7.484375 -8.328125 C 7.273438 -8.421875 7 -8.453125 6.65625 -8.421875 L 5.3125 -8.265625 L 5.859375 -3.34375 C 5.941406 -3.332031 6.078125 -3.320312 6.265625 -3.3125 C 6.460938 -3.300781 6.59375 -3.296875 6.65625 -3.296875 C 6.71875 -3.285156 6.796875 -3.269531 6.890625 -3.25 C 6.992188 -3.238281 7.054688 -3.234375 7.078125 -3.234375 C 7.109375 -3.242188 7.140625 -3.25 7.171875 -3.25 C 7.210938 -3.25 7.234375 -3.25 7.234375 -3.25 C 7.703125 -3.1875 7.960938 -2.929688 8.015625 -2.484375 L 8.1875 -0.90625 L 6.15625 -0.6875 L 2.578125 -0.28125 Z M 5.03125 -10.8125 L 7.09375 -11.046875 C 7.664062 -11.109375 8.238281 -11.265625 8.8125 -11.515625 C 9.300781 -11.734375 9.695312 -12.015625 10 -12.359375 C 10.269531 -12.660156 10.460938 -13.035156 10.578125 -13.484375 C 10.703125 -13.941406 10.738281 -14.398438 10.6875 -14.859375 C 10.570312 -15.835938 10.164062 -16.5625 9.46875 -17.03125 C 8.789062 -17.46875 7.773438 -17.613281 6.421875 -17.46875 L 4.3125 -17.234375 Z M 5.03125 -10.8125 "/></g></g></g><g fill="#5271ff" fill-opacity="1"><g transform="translate(206.897301, 344.026799)"><g><path d="M 0.4375 -0.125 L 0.078125 -1.4375 C -0.00390625 -1.75 0.109375 -2.023438 0.421875 -2.265625 C 0.679688 -2.460938 1.101562 -2.785156 1.6875 -3.234375 L 3.65625 -21.125 L 7.25 -22.09375 L 17.984375 -7.625 C 18.703125 -7.53125 19.226562 -7.460938 19.5625 -7.421875 C 19.925781 -7.390625 20.148438 -7.203125 20.234375 -6.859375 L 20.59375 -5.546875 L 19.6875 -5.3125 L 17.671875 -4.765625 L 17.234375 -4.640625 L 16.984375 -4.578125 L 14.25 -3.84375 L 13.890625 -5.15625 C 13.804688 -5.46875 13.921875 -5.742188 14.234375 -5.984375 C 14.234375 -5.992188 14.257812 -6.007812 14.3125 -6.03125 C 14.363281 -6.0625 14.421875 -6.101562 14.484375 -6.15625 C 14.554688 -6.21875 14.628906 -6.273438 14.703125 -6.328125 L 14.515625 -6.59375 L 12.890625 -8.875 L 5.421875 -6.859375 L 5.1875 -3.921875 L 5.15625 -3.75 C 5.25 -3.738281 5.335938 -3.722656 5.421875 -3.703125 C 5.515625 -3.691406 5.585938 -3.6875 5.640625 -3.6875 C 5.691406 -3.6875 5.71875 -3.6875 5.71875 -3.6875 C 6.101562 -3.632812 6.335938 -3.453125 6.421875 -3.140625 L 6.78125 -1.828125 L 4.09375 -1.109375 L 3.8125 -1.03125 L 3.390625 -0.921875 L 1.34375 -0.359375 Z M 5.65625 -9.59375 L 11.34375 -11.125 L 7.625 -16.375 C 7.5625 -16.457031 7.46875 -16.59375 7.34375 -16.78125 C 7.21875 -16.96875 7.109375 -17.117188 7.015625 -17.234375 C 6.953125 -17.335938 6.71875 -17.722656 6.3125 -18.390625 C 6.3125 -17.585938 6.304688 -17.132812 6.296875 -17.03125 C 6.296875 -16.914062 6.289062 -16.796875 6.28125 -16.671875 C 6.28125 -16.546875 6.269531 -16.414062 6.25 -16.28125 C 6.226562 -16.144531 6.222656 -16.046875 6.234375 -15.984375 Z M 5.65625 -9.59375 "/></g></g></g><g fill="#5271ff" fill-opacity="1"><g transform="translate(230.77423, 337.331669)"><g><path d="M -7.015625 -16.453125 L -7.671875 -17.890625 L -6.828125 -18.265625 L -5.8125 -18.71875 L -4.171875 -19.46875 L -1.046875 -20.890625 L -0.390625 -19.453125 C -0.203125 -19.035156 -0.285156 -18.6875 -0.640625 -18.40625 C -0.703125 -18.382812 -0.75 -18.359375 -0.78125 -18.328125 C -0.8125 -18.273438 -0.875 -18.21875 -0.96875 -18.15625 C -1.007812 -18.125 -1.066406 -18.070312 -1.140625 -18 C -1.210938 -17.9375 -1.28125 -17.890625 -1.34375 -17.859375 L 6.359375 -10.3125 C 6.660156 -10.03125 6.960938 -9.707031 7.265625 -9.34375 C 7.578125 -8.976562 7.898438 -8.59375 8.234375 -8.1875 C 8.015625 -9.144531 7.878906 -10.070312 7.828125 -10.96875 L 7.171875 -21.734375 C 7.109375 -21.710938 7.023438 -21.691406 6.921875 -21.671875 C 6.828125 -21.660156 6.765625 -21.65625 6.734375 -21.65625 C 6.578125 -21.613281 6.472656 -21.59375 6.421875 -21.59375 C 6.378906 -21.59375 6.335938 -21.582031 6.296875 -21.5625 C 5.835938 -21.476562 5.515625 -21.644531 5.328125 -22.0625 L 4.671875 -23.5 L 7.8125 -24.921875 L 9.4375 -25.671875 L 10.453125 -26.125 L 11.28125 -26.5 L 11.9375 -25.0625 C 12.125 -24.644531 12.046875 -24.300781 11.703125 -24.03125 C 11.679688 -24.019531 11.648438 -24 11.609375 -23.96875 C 11.578125 -23.945312 11.550781 -23.929688 11.53125 -23.921875 C 11.507812 -23.910156 11.46875 -23.878906 11.40625 -23.828125 C 11.34375 -23.785156 11.285156 -23.742188 11.234375 -23.703125 C 11.179688 -23.671875 11.078125 -23.601562 10.921875 -23.5 C 10.773438 -23.394531 10.660156 -23.316406 10.578125 -23.265625 L 11.359375 -5.171875 L 8.390625 -3.8125 L -4.75 -16.28125 C -4.863281 -16.25 -5 -16.210938 -5.15625 -16.171875 C -5.3125 -16.140625 -5.421875 -16.113281 -5.484375 -16.09375 C -5.546875 -16.082031 -5.625 -16.0625 -5.71875 -16.03125 C -5.8125 -16.007812 -5.867188 -16 -5.890625 -16 C -5.941406 -15.988281 -5.988281 -15.972656 -6.03125 -15.953125 C -6.5 -15.867188 -6.828125 -16.035156 -7.015625 -16.453125 Z M -7.015625 -16.453125 "/></g></g></g><g fill="#5271ff" fill-opacity="1"><g transform="translate(252.888447, 326.810028)"><g><path d="M 0.453125 -0.28125 L -0.40625 -1.625 C -0.644531 -2 -0.601562 -2.351562 -0.28125 -2.6875 L -0.25 -2.734375 C -0.21875 -2.742188 -0.191406 -2.757812 -0.171875 -2.78125 C -0.140625 -2.789062 -0.09375 -2.832031 -0.03125 -2.90625 C 0.03125 -2.988281 0.0859375 -3.050781 0.140625 -3.09375 C 0.171875 -3.125 0.21875 -3.171875 0.28125 -3.234375 C 0.351562 -3.296875 0.429688 -3.363281 0.515625 -3.4375 C 0.609375 -3.507812 0.6875 -3.578125 0.75 -3.640625 L -6.859375 -15.546875 C -6.929688 -15.515625 -7.019531 -15.472656 -7.125 -15.421875 C -7.238281 -15.378906 -7.332031 -15.335938 -7.40625 -15.296875 C -7.488281 -15.265625 -7.554688 -15.238281 -7.609375 -15.21875 C -7.671875 -15.195312 -7.742188 -15.164062 -7.828125 -15.125 C -7.921875 -15.09375 -7.984375 -15.070312 -8.015625 -15.0625 C -8.035156 -15.039062 -8.0625 -15.03125 -8.09375 -15.03125 L -8.15625 -15 C -8.582031 -14.84375 -8.921875 -14.957031 -9.171875 -15.34375 L -10.015625 -16.671875 L -8.28125 -17.78125 L 2.046875 -24.375 L 3.0625 -22.78125 L 3.59375 -21.953125 L 4.796875 -20.078125 L 4.6875 -20.015625 L 4.421875 -19.84375 L 3.484375 -19.25 C 3.203125 -19.070312 2.9375 -19.101562 2.6875 -19.34375 C 2.144531 -19.988281 1.78125 -20.4375 1.59375 -20.6875 L -3.6875 -17.3125 L -0.78125 -12.765625 L 4.78125 -16.3125 L 6.28125 -13.96875 L 0.71875 -10.421875 L 3.671875 -5.796875 L 8.953125 -9.171875 C 8.816406 -9.421875 8.5625 -9.9375 8.1875 -10.71875 C 8.070312 -11.050781 8.15625 -11.304688 8.4375 -11.484375 L 9.375 -12.078125 L 9.640625 -12.25 L 9.75 -12.3125 L 10.953125 -10.4375 L 11.5 -9.5625 L 12.515625 -7.984375 L 2.1875 -1.390625 Z M 0.453125 -0.28125 "/></g></g></g><g fill="#5271ff" fill-opacity="1"><g transform="translate(268.033466, 316.941823)"><g><path d="M 0.40625 -0.34375 L -0.609375 -1.578125 C -0.890625 -1.921875 -0.882812 -2.273438 -0.59375 -2.640625 C -0.5625 -2.671875 -0.53125 -2.707031 -0.5 -2.75 C -0.4375 -2.851562 -0.347656 -2.960938 -0.234375 -3.078125 C -0.191406 -3.117188 -0.144531 -3.171875 -0.09375 -3.234375 C -0.0390625 -3.304688 0.0234375 -3.382812 0.109375 -3.46875 C 0.191406 -3.5625 0.257812 -3.640625 0.3125 -3.703125 L -8.65625 -14.625 C -8.726562 -14.582031 -8.816406 -14.53125 -8.921875 -14.46875 C -9.023438 -14.414062 -9.109375 -14.363281 -9.171875 -14.3125 C -9.242188 -14.257812 -9.304688 -14.222656 -9.359375 -14.203125 C -9.421875 -14.179688 -9.488281 -14.144531 -9.5625 -14.09375 C -9.644531 -14.050781 -9.703125 -14.019531 -9.734375 -14 C -9.796875 -13.988281 -9.84375 -13.96875 -9.875 -13.9375 C -10.289062 -13.726562 -10.644531 -13.800781 -10.9375 -14.15625 L -11.9375 -15.375 L -10.34375 -16.671875 L -7.5625 -18.953125 L -5.984375 -20.25 L -4.984375 -19.03125 C -4.691406 -18.675781 -4.691406 -18.316406 -4.984375 -17.953125 C -5.023438 -17.921875 -5.050781 -17.878906 -5.0625 -17.828125 C -5.09375 -17.765625 -5.179688 -17.660156 -5.328125 -17.515625 C -5.367188 -17.460938 -5.457031 -17.363281 -5.59375 -17.21875 C -5.726562 -17.070312 -5.820312 -16.96875 -5.875 -16.90625 L 2.890625 -6.234375 L 7.734375 -10.21875 C 7.316406 -10.800781 7.097656 -11.117188 7.078125 -11.171875 C 6.921875 -11.484375 6.972656 -11.742188 7.234375 -11.953125 L 8.359375 -12.875 L 10.078125 -10.78125 L 10.40625 -10.390625 L 11.3125 -9.28125 L 10.8125 -8.875 L 10.75 -8.828125 L 2 -1.640625 Z M 0.40625 -0.34375 "/></g></g></g><g fill="#5271ff" fill-opacity="1"><g transform="translate(281.884092, 305.522649)"><g><path d="M -12.78125 -12.5 L -13.9375 -13.578125 L -13.3125 -14.265625 L -12.546875 -15.078125 L -11.46875 -16.234375 L -8.984375 -18.90625 L -7.828125 -17.828125 C -7.492188 -17.515625 -7.4375 -17.15625 -7.65625 -16.75 C -7.664062 -16.738281 -7.675781 -16.722656 -7.6875 -16.703125 C -7.695312 -16.679688 -7.710938 -16.660156 -7.734375 -16.640625 C -7.734375 -16.609375 -7.769531 -16.53125 -7.84375 -16.40625 C -7.851562 -16.375 -7.921875 -16.257812 -8.046875 -16.0625 L -2.828125 -14.765625 C -2.429688 -14.660156 -2.050781 -14.546875 -1.6875 -14.421875 C -1.539062 -14.367188 -1.347656 -14.289062 -1.109375 -14.1875 C -0.878906 -14.09375 -0.734375 -14.03125 -0.671875 -14 C -0.785156 -14.1875 -0.941406 -14.519531 -1.140625 -15 C -1.285156 -15.363281 -1.425781 -15.738281 -1.5625 -16.125 L -3.25 -21.203125 C -3.257812 -21.191406 -3.304688 -21.15625 -3.390625 -21.09375 C -3.484375 -21.03125 -3.546875 -20.988281 -3.578125 -20.96875 C -3.617188 -20.9375 -3.664062 -20.910156 -3.71875 -20.890625 C -3.769531 -20.867188 -3.800781 -20.851562 -3.8125 -20.84375 C -3.84375 -20.832031 -3.878906 -20.800781 -3.921875 -20.75 C -4.304688 -20.5 -4.664062 -20.53125 -5 -20.84375 L -6.15625 -21.921875 L -3.6875 -24.578125 L -2.609375 -25.734375 L -1.828125 -26.5625 L -1.5 -26.921875 L -1.203125 -27.25 L -0.046875 -26.171875 C 0.285156 -25.859375 0.34375 -25.5 0.125 -25.09375 C 0.101562 -25.082031 0.0820312 -25.0625 0.0625 -25.03125 C 0.0507812 -25 0.0351562 -24.972656 0.015625 -24.953125 C 0.00390625 -24.941406 -0.0195312 -24.890625 -0.0625 -24.796875 C -0.113281 -24.710938 -0.15625 -24.644531 -0.1875 -24.59375 C -0.21875 -24.550781 -0.285156 -24.453125 -0.390625 -24.296875 C -0.492188 -24.148438 -0.578125 -24.03125 -0.640625 -23.9375 L 2.390625 -13.625 L 5.953125 -10.3125 C 6.046875 -10.375 6.160156 -10.457031 6.296875 -10.5625 C 6.441406 -10.664062 6.535156 -10.738281 6.578125 -10.78125 C 6.628906 -10.820312 6.695312 -10.863281 6.78125 -10.90625 C 6.863281 -10.957031 6.914062 -10.988281 6.9375 -11 C 6.957031 -11.019531 6.976562 -11.039062 7 -11.0625 C 7.03125 -11.09375 7.050781 -11.113281 7.0625 -11.125 C 7.4375 -11.375 7.785156 -11.347656 8.109375 -11.046875 L 9.28125 -9.953125 L 7.90625 -8.484375 L 5.4375 -5.828125 L 4.03125 -4.328125 L 2.859375 -5.421875 C 2.535156 -5.722656 2.492188 -6.078125 2.734375 -6.484375 C 2.785156 -6.535156 2.820312 -6.578125 2.84375 -6.609375 C 2.894531 -6.734375 2.96875 -6.851562 3.0625 -6.96875 C 3.09375 -7.03125 3.148438 -7.132812 3.234375 -7.28125 C 3.328125 -7.425781 3.410156 -7.550781 3.484375 -7.65625 L -0.078125 -10.96875 L -10.59375 -13.265625 C -10.664062 -13.210938 -10.773438 -13.125 -10.921875 -13 C -11.066406 -12.882812 -11.171875 -12.804688 -11.234375 -12.765625 C -11.285156 -12.722656 -11.347656 -12.675781 -11.421875 -12.625 C -11.503906 -12.570312 -11.554688 -12.535156 -11.578125 -12.515625 C -11.617188 -12.492188 -11.660156 -12.460938 -11.703125 -12.421875 C -12.085938 -12.160156 -12.445312 -12.1875 -12.78125 -12.5 Z M -12.78125 -12.5 "/></g></g></g><g fill="#5271ff" fill-opacity="1"><g transform="translate(296.827114, 289.023011)"><g><path d="M 0.3125 -0.4375 L -0.984375 -1.359375 C -1.347656 -1.617188 -1.441406 -1.960938 -1.265625 -2.390625 L -1.25 -2.4375 C -1.226562 -2.46875 -1.210938 -2.492188 -1.203125 -2.515625 C -1.179688 -2.535156 -1.15625 -2.59375 -1.125 -2.6875 C -1.09375 -2.78125 -1.0625 -2.859375 -1.03125 -2.921875 C -1.007812 -2.960938 -0.976562 -3.019531 -0.9375 -3.09375 C -0.90625 -3.175781 -0.863281 -3.269531 -0.8125 -3.375 C -0.757812 -3.488281 -0.71875 -3.582031 -0.6875 -3.65625 L -12.203125 -11.828125 C -12.265625 -11.765625 -12.335938 -11.6875 -12.421875 -11.59375 C -12.503906 -11.507812 -12.570312 -11.4375 -12.625 -11.375 C -12.6875 -11.320312 -12.738281 -11.273438 -12.78125 -11.234375 C -12.820312 -11.191406 -12.878906 -11.132812 -12.953125 -11.0625 C -13.023438 -11 -13.070312 -10.957031 -13.09375 -10.9375 C -13.101562 -10.914062 -13.125 -10.894531 -13.15625 -10.875 L -13.1875 -10.828125 C -13.53125 -10.523438 -13.890625 -10.503906 -14.265625 -10.765625 L -15.5625 -11.6875 L -14.375 -13.359375 L -7.296875 -23.359375 L -5.75 -22.265625 L -4.953125 -21.6875 L -3.125 -20.40625 L -3.1875 -20.3125 L -3.375 -20.046875 L -4.015625 -19.140625 C -4.203125 -18.867188 -4.457031 -18.796875 -4.78125 -18.921875 C -5.53125 -19.328125 -6.039062 -19.609375 -6.3125 -19.765625 L -9.9375 -14.65625 L -5.53125 -11.546875 L -1.71875 -16.921875 L 0.5625 -15.296875 L -3.25 -9.921875 L 1.21875 -6.765625 L 4.84375 -11.875 C 4.613281 -12.0625 4.179688 -12.441406 3.546875 -13.015625 C 3.328125 -13.273438 3.3125 -13.539062 3.5 -13.8125 L 4.140625 -14.71875 L 4.328125 -14.984375 L 4.390625 -15.078125 L 6.203125 -13.796875 L 7.046875 -13.1875 L 8.578125 -12.109375 L 1.5 -2.109375 Z M 0.3125 -0.4375 "/></g></g></g><g fill="#5271ff" fill-opacity="1"><g transform="translate(307.214061, 274.170991)"><g><path d="M -12.890625 -7.390625 L -16.953125 -9.5625 L -16.765625 -9.90625 L -16.75 -9.921875 L -9.53125 -23.4375 L -9.328125 -23.8125 L -5.265625 -21.640625 L -5.3125 -21.53125 L -5.46875 -21.265625 L -5.984375 -20.28125 C -6.148438 -19.976562 -6.40625 -19.875 -6.75 -19.96875 C -7.125 -20.09375 -7.46875 -20.222656 -7.78125 -20.359375 L -9.640625 -16.875 L 2.515625 -10.375 C 2.585938 -10.457031 2.675781 -10.566406 2.78125 -10.703125 C 2.894531 -10.847656 2.96875 -10.941406 3 -10.984375 C 3.039062 -11.035156 3.09375 -11.097656 3.15625 -11.171875 C 3.226562 -11.242188 3.269531 -11.289062 3.28125 -11.3125 C 3.289062 -11.332031 3.304688 -11.359375 3.328125 -11.390625 C 3.347656 -11.421875 3.359375 -11.4375 3.359375 -11.4375 C 3.679688 -11.789062 4.039062 -11.863281 4.4375 -11.65625 L 5.84375 -10.90625 L 4.875 -9.109375 L 3.15625 -5.90625 L 2.203125 -4.125 L 0.796875 -4.875 C 0.398438 -5.082031 0.265625 -5.410156 0.390625 -5.859375 L 0.390625 -5.921875 C 0.410156 -5.960938 0.429688 -5.992188 0.453125 -6.015625 C 0.460938 -6.046875 0.476562 -6.101562 0.5 -6.1875 C 0.519531 -6.28125 0.539062 -6.351562 0.5625 -6.40625 C 0.582031 -6.46875 0.617188 -6.582031 0.671875 -6.75 C 0.734375 -6.925781 0.773438 -7.066406 0.796875 -7.171875 L -11.375 -13.6875 L -13.234375 -10.203125 C -12.828125 -9.941406 -12.519531 -9.722656 -12.3125 -9.546875 C -12.050781 -9.316406 -12 -9.054688 -12.15625 -8.765625 L -12.6875 -7.75 L -12.84375 -7.46875 Z M -12.890625 -7.390625 "/></g></g></g></svg>